<svg xmlns="http://www.w3.org/2000/svg" viewBox="0 0 1654.814 499.758"><g data-name="Layer 2"><g data-name="Layer 1"><path d="M66.656 297.408h.045c.266-.009.53-.022.794-.038.094 0 .188-.011.281-.018l.148-.01.216-.019c.15-.013.3-.025.448-.04l.234-.027c.15-.017.3-.033.449-.052.075-.009.149-.021.224-.031l.264-.037a21.8 21.8 0 00.435-.068l.1-.016q.336-.056.669-.12l.032-.006q.327-.063.651-.134l.1-.021c.139-.031.277-.063.415-.1l.072-.018c.217-.053.434-.108.649-.166l.038-.011c.209-.056.418-.116.625-.177l.131-.039.389-.121.032-.01q.324-.1.643-.215l.044-.016c.2-.072.408-.146.611-.223l.117-.045q.853-.327 1.679-.709l.131-.062c.175-.082.348-.166.521-.251l.111-.056c.164-.083.328-.167.49-.252l.187-.1.278-.151.135-.076q.246-.138.489-.28l.113-.068c.146-.087.292-.175.436-.265q.258-.159.512-.324h.007c.107-.07.212-.143.318-.214s.2-.136.3-.2.224-.158.335-.238l.3-.213q.3-.221.592-.448l.113-.088q.354-.277.7-.566l.047-.04.077-.067c.153-.13.306-.262.456-.4.087-.077.172-.156.257-.235l.329-.3.138-.132c.11-.105.217-.211.324-.317.267-.265.53-.534.787-.81l.031-.033q.633-.684 1.218-1.41l.032-.04q.585-.728 1.119-1.5l.024-.034q.535-.774 1.02-1.585l.01-.018q.36-.606.689-1.233l.012-.021q.44-.84.822-1.713l.015-.033q.38-.872.7-1.773l.013-.036q.238-.679.443-1.374l.037-.013.091-.439q.111-.4.208-.808v-.006q.294-1.222.477-2.487l24.455-111.974-11.209-53.83a53.771 53.771 0 01-.662-3.931l-.742-3.554a27.111 27.111 0 00-.835-3.094A25.213 25.213 0 0081.727 79.2H9.016c-7.209 0-9.777 3.84-8.826 8.908l38.987 187.216q.12.639.268 1.267c.036.155.073.309.112.462l.086.322a13.828 13.828 0 00.169.6c.027.091.053.183.081.274l.1.318.088.272a30.106 30.106 0 00.201.583l.112.312.1.266a13.071 13.071 0 00.232.585q.113.276.232.549c.038.087.075.175.114.262l.136.3.121.258c.046.1.094.2.142.293.041.086.084.171.127.256l.147.289.135.255c.05.094.1.189.151.282s.1.171.144.256.1.184.155.275c.067.117.136.232.2.348.08.134.162.267.244.4l.159.255.171.263.162.246.176.26.168.242.18.254.177.242.182.246.191.25.178.23c.107.135.214.268.323.4l.21.251.216.256c.073.085.129.147.194.221l.207.234.2.219c.07.077.141.153.213.229l.2.214.222.227.2.2.243.237.191.185q.21.2.424.394l.169.152.284.252.206.176c.086.073.171.146.258.218l.216.177.259.209.218.172.27.206c.071.055.143.109.215.162.1.074.2.146.3.218l.193.14q.242.171.486.336c.048.033.1.065.146.1q.181.122.363.239l.21.133c.1.064.2.129.309.192l.225.137a47.371 47.371 0 00.529.311l.314.176.223.122.349.184.194.1c.179.092.359.181.541.269l.112.053c.147.07.3.14.445.207.069.032.14.063.21.094.118.052.237.105.356.156l.232.1.344.141.236.093c.118.046.236.09.354.134a16.4 16.4 0 00.621.223l.2.068c.2.066.391.129.588.191l.074.022q.261.081.524.156l.209.058c.132.036.265.073.4.107l.238.061.377.092.246.056c.127.029.255.057.383.084l.237.049c.14.028.281.055.421.081l.2.038c.207.036.416.071.625.1l.038.006c.2.03.395.057.594.083l.21.025c.142.017.285.034.429.049l.244.024q.2.02.4.036l.254.019c.134.01.269.018.4.026l.248.013c.146.007.293.012.441.017l.211.007q.326.007.654.008c.277 0 .553-.006.828-.014z" fill="#ffdb00"/><path d="M281.711 373.649h.215c.2 0 .39 0 .585-.008a32.184 32.184 0 0030.845-25.275c.014 0 13.631-65.161 28.556-136.593l-28.458-136.39a32.177 32.177 0 00-.985-3.649 29.736 29.736 0 00-25.846-21.968H166.737a29.737 29.737 0 0125.847 21.968 31.967 31.967 0 01.984 3.649l56.6 271.279q.236 1.459.6 2.873a32.185 32.185 0 0030.935 24.111z" fill="#6fb635"/><path d="M505.343 0h-91.017a18.477 18.477 0 00-1.926.1h-.26a32.162 32.162 0 00-28.185 16.653 60.783 60.783 0 00-3.9 12.456s-66.666 319.149-66.698 319.161a32.184 32.184 0 01-31.431 25.282h-.215l-.311.024c-.531.048-1.083.075-1.662.075h135.041a18.482 18.482 0 001.928-.1h.26A32.182 32.182 0 00448.4 348.37c.014 0 11.694-55.889 25.275-120.887l44.241-213.87C519.4 6.55 516.865 0 505.343 0z" fill="#e72582"/><path d="M193.568 75.383a31.967 31.967 0 00-.984-3.649 29.737 29.737 0 00-25.847-21.968 30.205 30.205 0 00-2.884-.14 29.87 29.87 0 00-5.478.506c-13.083 1.972-21.591 11.713-24.237 24.423L92.625 274.21q-.181 1.265-.477 2.487v.006q-.1.407-.208.808l-.091.439-.037.013q-.2.694-.443 1.374l-.013.036q-.319.9-.7 1.773l-.015.033q-.381.873-.822 1.713l-.012.021q-.328.627-.689 1.233l-.01.018q-.483.812-1.02 1.585l-.024.034q-.534.768-1.119 1.5l-.032.04q-.585.726-1.218 1.41l-.031.033q-.468.5-.961.984l-.03.028c-.109.106-.218.211-.329.315l-.018.016q-.5.472-1.03.917l-.047.04q-.708.6-1.455 1.143l-.054.039q-.562.409-1.144.79l-.011.007-.382.244-.05.031q-.581.363-1.179.7l-.044.024a21.65 21.65 0 01-.4.217l-.03.015q-.611.324-1.239.618l-.059.028q-.849.393-1.727.729l-.064.025q-.66.251-1.336.467h-.012c-.147.046-.293.092-.441.136l-.06.018q-.668.2-1.349.364l-.054.014c-.15.036-.3.07-.45.1l-.043.009q-.687.151-1.385.267l-.08.014-.458.071c-.564.087-1.169.156-1.819.2l-.18.012-.247.016c-.264.016-.53.029-.8.038h-.064a28.46 28.46 0 01-.828.014h106.257c.277 0 .553-.006.828-.014h.064c.266-.009.532-.022.8-.038l.247-.016c.06 0 .12-.007.18-.012.65-.047 1.255-.116 1.819-.2l.458-.071.08-.014q.7-.115 1.385-.267l.043-.009c.15-.034.3-.068.45-.1l.054-.014q.681-.165 1.349-.364l.06-.018c.148-.044.294-.09.441-.136h.012q.676-.218 1.336-.467l.064-.025q.879-.335 1.727-.729l.059-.028q.629-.294 1.239-.618l.03-.015c.133-.071.266-.144.4-.217l.044-.024q.6-.334 1.179-.7l.05-.031.382-.244.011-.007q.582-.381 1.144-.79l.054-.039q.747-.548 1.455-1.143l.047-.04q.526-.445 1.03-.917l.018-.016c.111-.1.22-.209.329-.315l.03-.028q.492-.48.961-.984l.031-.033q.633-.684 1.218-1.41l.032-.04q.585-.728 1.119-1.5l.024-.034q.535-.774 1.02-1.585l.01-.018q.36-.606.689-1.233l.012-.021q.44-.84.822-1.713l.015-.033q.38-.872.7-1.773l.013-.036q.238-.679.443-1.374l.037-.013.091-.439q.111-.4.208-.808v-.006q.294-1.222.477-2.487l18.159-87.336z" fill="#35beed"/><path d="M150.766 35.763l.165-.015H149.7c.356 0 .711.006 1.066.015zm132.143 0l.165-.015h-1.231c.357 0 .711.006 1.066.015z" fill="#3c3c3b"/><path d="M643.9 10.819a24.756 24.756 0 0118.2 7.58 24.976 24.976 0 017.547 18.279 24.712 24.712 0 01-7.547 18.056 24.744 24.744 0 01-18.2 7.579 24.491 24.491 0 01-17.98-7.579 24.7 24.7 0 01-7.544-18.056 24.966 24.966 0 017.541-18.278 24.5 24.5 0 0117.983-7.581zm-15.492 99.867h31.207v242.533h-31.21zm73.567-85.378h33.661L802.622 261.6l94-236.293h6.8L996.336 261.6l68.129-236.293h33.41l-94.22 327.911h-6.088l-97.308-248.105-99.2 248.106h-6.119zm601.037 247.438l26.3 13.821q-12.94 25.413-29.9 41.017a118.719 118.719 0 01-38.153 23.741q-21.2 8.133-47.972 8.136-59.352 0-92.818-38.9t-33.468-87.941q0-46.143 28.334-82.256 35.921-45.92 96.165-45.921 62.026 0 99.062 47.036 26.326 33.218 26.774 82.924h-218.23q.888 42.258 27 69.279t64.5 27.022a103.659 103.659 0 0036.043-6.441 94.773 94.773 0 0029.794-17.1q12.286-10.655 26.569-34.417zm0-65.315q-6.249-24.962-18.192-39.9t-31.581-24.075a96.751 96.751 0 00-41.289-9.139q-35.715 0-61.379 22.961-18.75 16.717-28.344 50.155zm85.388 145.788V17.061h31.209v135.31q19.593-24.075 43.87-36t53.224-11.926q51.443 0 87.85 37.339t36.413 90.615q0 52.613-36.747 89.836t-88.408 37.227q-29.617 0-53.667-12.706t-42.535-38.119v44.583zm124.834-23.852a93.955 93.955 0 0083.065-48.819 98.981 98.981 0 00-.108-98.306 95.681 95.681 0 00-35.252-36.447 91.559 91.559 0 00-47.259-13.04 97.111 97.111 0 00-48.6 13.04 90.846 90.846 0 00-35.361 35.11q-12.345 22.068-12.344 49.71 0 42.132 27.687 70.442t68.17 28.31zm-887.506 78.246h41.561v7.1h-34.314v22.729h34.019v7.1h-34.019v28.5h34.019v7.1h-41.266zm46.837 18.887h8.282l14.268 19.623 14.117-19.623h8.3l-18.258 25.34 20.575 28.3h-8.407l-16.327-22.529-16.233 22.529h-8.237l20.323-28.251zm54.675 0h6.9v9.861a27.7 27.7 0 019.407-8.431 25.019 25.019 0 0111.87-2.81 26.489 26.489 0 0119.553 8.233 27.2 27.2 0 018.127 19.82 27.707 27.707 0 01-8.053 20.091 27.112 27.112 0 01-31.2 5.595 29.623 29.623 0 01-9.7-7.937v28.841h-6.9zm27.61 5.276a20.277 20.277 0 00-15.077 6.254 21.361 21.361 0 00-6.123 15.562 22.087 22.087 0 002.73 10.982 19.915 19.915 0 007.82 7.731 21.647 21.647 0 0010.749 2.857 20.266 20.266 0 0010.452-2.881 21.166 21.166 0 007.8-8.052 21.755 21.755 0 00.023-21.668 20.786 20.786 0 00-18.371-10.785zm86.328 30.562L847 465.4a31.722 31.722 0 01-6.614 9.071 26.236 26.236 0 01-8.438 5.251 29.43 29.43 0 01-10.609 1.8q-13.13 0-20.529-8.6a29.026 29.026 0 01-7.4-19.45 28.668 28.668 0 016.268-18.193q7.944-10.155 21.267-10.156 13.719 0 21.911 10.4 5.821 7.347 5.922 18.34h-48.273q.2 9.346 5.972 15.322a19.051 19.051 0 0014.265 5.977 22.927 22.927 0 007.972-1.425 20.967 20.967 0 006.59-3.781 32.162 32.162 0 005.874-7.618zm0-14.446a22.885 22.885 0 00-4.023-8.824 19.044 19.044 0 00-6.985-5.325 21.4 21.4 0 00-9.131-2.022 19.667 19.667 0 00-13.575 5.079q-4.148 3.7-6.269 11.092zm17.847-21.392h7.05v7.839a24.745 24.745 0 016.657-6.927 13.124 13.124 0 017.3-2.292 12.607 12.607 0 016.114 1.824l-3.6 5.818a9.612 9.612 0 00-3.648-.937 9.978 9.978 0 00-6.655 2.835q-3.206 2.837-4.882 8.8-1.283 4.586-1.282 18.538v18.143h-7.05zm38.998-19.923h6.9V426.5h10.945v5.966h-10.942v47.675h-6.9v-47.68h-9.416V426.5h9.416zm55.17 25.785l-4.438 4.585q-5.537-5.372-10.824-5.373a8.179 8.179 0 00-5.759 2.218 6.849 6.849 0 00-2.4 5.177 7.663 7.663 0 001.975 4.979q1.976 2.417 8.3 5.67 7.708 3.995 10.474 7.691a14 14 0 012.718 8.431 15.128 15.128 0 01-4.643 11.191 15.843 15.843 0 01-11.6 4.586 20.268 20.268 0 01-8.864-2.022 19.24 19.24 0 01-6.986-5.571l4.339-4.93q5.288 5.965 11.217 5.966a10.109 10.109 0 007.067-2.663 8.226 8.226 0 002.915-6.261 8.031 8.031 0 00-1.927-5.276q-1.928-2.266-8.7-5.719-7.261-3.746-9.882-7.395a13.932 13.932 0 01-2.618-8.332 13.548 13.548 0 014.174-10.156 14.536 14.536 0 0110.544-4.043q7.409 0 14.918 7.247zm42.572-27.954a5.695 5.695 0 010 11.389 5.709 5.709 0 01-5.644-5.67 5.52 5.52 0 011.668-4.043 5.416 5.416 0 013.976-1.676zm-3.427 22.092h6.9v53.641h-6.9zm21.25 0h6.9v9.615a28.864 28.864 0 019.171-8.259 22.532 22.532 0 0110.944-2.736 19.02 19.02 0 0110.675 3.057 18.2 18.2 0 016.876 8.233q2.22 5.177 2.219 16.122v27.609h-6.9v-25.593q0-9.268-.769-12.375a13.59 13.59 0 00-4.6-8.011 13.9 13.9 0 00-8.876-2.687 17.022 17.022 0 00-11.218 4.141 19.386 19.386 0 00-6.533 10.255q-.989 3.995-.987 14.594v19.671h-6.9zm158.212-5.428l-5.72 4.388a31.265 31.265 0 00-11.363-9.343 33.258 33.258 0 00-14.569-3.18 32.2 32.2 0 00-16.073 4.166 29.916 29.916 0 00-11.463 11.192 30.964 30.964 0 00-4.067 15.8 29.667 29.667 0 009.1 22.137q9.1 8.874 22.95 8.874 15.236 0 25.489-11.931l5.72 4.339a36.569 36.569 0 01-13.533 10.674 42.468 42.468 0 01-18.119 3.771q-19.032 0-30.025-12.67-9.219-10.7-9.22-25.835a35.923 35.923 0 0111.167-26.795q11.168-10.872 27.98-10.871a41.061 41.061 0 0118.34 4.018 35.622 35.622 0 0113.406 11.266zm38.8 4.043a26.57 26.57 0 0120.546 8.973 28.8 28.8 0 01-.42 39.023q-7.83 8.406-20.126 8.406-12.348 0-20.175-8.406a28.736 28.736 0 01-.42-38.974 26.555 26.555 0 0120.595-9.022zm-.025 6.754a19.918 19.918 0 00-14.794 6.36 21.259 21.259 0 00-6.184 15.383 21.806 21.806 0 002.82 10.846 19.974 19.974 0 007.62 7.765 21.655 21.655 0 0021.076 0 19.98 19.98 0 007.62-7.765 21.816 21.816 0 002.82-10.846 21.21 21.21 0 00-6.21-15.383 19.936 19.936 0 00-14.768-6.36zm40.699-5.369h6.9v9.269a26.718 26.718 0 017.4-7.494 21 21 0 0111.008-3.155 18.345 18.345 0 017.4 1.528 15.9 15.9 0 015.724 4.068 21.765 21.765 0 013.85 7.272 25.491 25.491 0 018.609-9.59 20.368 20.368 0 0111.115-3.278 17.4 17.4 0 019.813 2.81 16.759 16.759 0 016.319 7.839q2.067 5.029 2.067 15.087v29.285h-7.051v-29.29q0-8.628-1.229-11.858a10.669 10.669 0 00-4.2-5.2 12.557 12.557 0 00-7.1-1.972 15.447 15.447 0 00-9.166 2.958 17.027 17.027 0 00-6.069 7.888q-1.914 4.932-1.916 16.468v21h-6.9v-27.46q0-9.713-1.209-13.188a11.044 11.044 0 00-4.215-5.572 12.193 12.193 0 00-7.148-2.1 15.427 15.427 0 00-8.948 2.884 17.068 17.068 0 00-6.164 7.765q-1.995 4.881-2 14.939v22.728h-6.9zm94.71 0h6.9v9.269a26.718 26.718 0 017.4-7.494 21 21 0 0111.009-3.155 18.344 18.344 0 017.4 1.528 15.909 15.909 0 015.725 4.068 21.8 21.8 0 013.85 7.272 25.48 25.48 0 018.608-9.59 20.371 20.371 0 0111.124-3.283 17.4 17.4 0 019.812 2.81 16.767 16.767 0 016.32 7.839q2.065 5.029 2.066 15.087v29.285h-7.05v-29.285q0-8.628-1.229-11.858a10.676 10.676 0 00-4.2-5.2 12.557 12.557 0 00-7.1-1.972 15.441 15.441 0 00-9.165 2.958 17.027 17.027 0 00-6.069 7.888q-1.916 4.932-1.917 16.468v21h-6.9v-27.46q0-9.713-1.208-13.188a11.046 11.046 0 00-4.216-5.572 12.193 12.193 0 00-7.148-2.1 15.427 15.427 0 00-8.948 2.884 17.068 17.068 0 00-6.164 7.765q-2 4.881-2 14.939v22.728h-6.9zm139.916 35.838l5.818 3.057a31.722 31.722 0 01-6.614 9.071 26.225 26.225 0 01-8.438 5.251 29.423 29.423 0 01-10.609 1.8q-13.128 0-20.528-8.6a29.027 29.027 0 01-7.4-19.45 28.674 28.674 0 016.268-18.193q7.944-10.155 21.268-10.156 13.719 0 21.91 10.4 5.821 7.347 5.922 18.34h-48.267q.2 9.346 5.972 15.322a19.053 19.053 0 0014.265 5.977 22.927 22.927 0 007.972-1.425 20.967 20.967 0 006.59-3.781 32.162 32.162 0 005.871-7.613zm0-14.446a22.886 22.886 0 00-4.024-8.824 19.036 19.036 0 00-6.985-5.325 21.4 21.4 0 00-9.131-2.022 19.664 19.664 0 00-13.574 5.079q-4.149 3.7-6.27 11.092zm17.85-21.392h7.05v7.839a24.745 24.745 0 016.657-6.927 13.124 13.124 0 017.3-2.292 12.607 12.607 0 016.114 1.824l-3.6 5.818a9.616 9.616 0 00-3.648-.937 9.978 9.978 0 00-6.656 2.835q-3.206 2.837-4.881 8.8-1.283 4.586-1.283 18.538v18.143h-7.05zm85.05 11.138l-5.472 3.4q-7.091-9.415-19.353-9.416a22.384 22.384 0 00-16.274 6.3 20.569 20.569 0 00-6.476 15.315 21.741 21.741 0 002.979 11.031 20.873 20.873 0 008.175 8.027 24.718 24.718 0 0030.949-6.56l5.472 3.6a25.839 25.839 0 01-10.328 8.985 33 33 0 01-14.765 3.193q-12.722 0-21.1-8.086a26.3 26.3 0 01-8.381-19.671 28.1 28.1 0 013.92-14.471 27.6 27.6 0 0110.772-10.427 31.422 31.422 0 0115.332-3.747 32.729 32.729 0 0110.28 1.627 28.581 28.581 0 018.407 4.24 23.076 23.076 0 015.863 6.66zm58.42 24.7l5.818 3.057a31.7 31.7 0 01-6.613 9.071 26.236 26.236 0 01-8.438 5.251 29.43 29.43 0 01-10.609 1.8q-13.129 0-20.529-8.6a29.026 29.026 0 01-7.4-19.45 28.668 28.668 0 016.268-18.193q7.943-10.155 21.267-10.156 13.719 0 21.91 10.4 5.823 7.347 5.923 18.34h-48.268q.2 9.346 5.973 15.322a19.05 19.05 0 0014.265 5.977 22.927 22.927 0 007.972-1.425 20.967 20.967 0 006.59-3.781 32.188 32.188 0 005.871-7.613zm0-14.446a22.886 22.886 0 00-4.024-8.824 19.041 19.041 0 00-6.984-5.325 21.4 21.4 0 00-9.131-2.022 19.667 19.667 0 00-13.575 5.079q-4.148 3.7-6.269 11.092z" fill="#1e1814"/></g></g></svg>