<?xml version="1.0" encoding="UTF-8" standalone="no"?>
<svg viewBox="0 0 489 371" version="1.1" xmlns="http://www.w3.org/2000/svg" xmlns:xlink="http://www.w3.org/1999/xlink">
    <!-- Generator: Sketch 39.1 (31720) - http://www.bohemiancoding.com/sketch -->
    <title>Slice</title>
    <desc>Created with Sketch.</desc>
    <defs>
        <polygon id="path-1" points="0 595.28 841.89 595.28 841.89 0 0 0"></polygon>
    </defs>
    <g id="Page-3" stroke="none" stroke-width="1" fill="none" fill-rule="evenodd">
        <g id="Final-Skiddle-logo-2016" transform="translate(-164.000000, -90.000000)">
            <path d="M344.2365,346.676 C350.9185,346.676 356.6055,352.221 356.6055,358.903 C356.6055,365.443 350.9185,370.988 344.2365,370.988 C337.6965,370.988 332.1515,365.443 332.1515,358.903 C332.1515,352.221 337.6965,346.676 344.2365,346.676 L344.2365,346.676 Z" id="Fill-15" fill="#FFFFFF"></path>
            <path d="M448.4359,181.1831 L418.2179,198.6291 L401.2839,188.8521 L448.4359,161.6301 L448.4359,181.1831 Z M435.0629,227.7551 L451.4659,237.2251 L371.1099,283.6181 L371.1099,264.6791 L435.0629,227.7551 Z M401.3279,208.2781 L418.2619,218.0551 L371.1099,245.2781 L371.1099,225.7251 L401.3279,208.2781 Z M384.4829,179.1521 L368.0809,169.6821 L448.4359,123.2891 L448.4359,142.2291 L384.4829,179.1521 Z M465.2379,94.1891 L354.3089,158.2331 L354.3089,181.1321 L384.5269,198.5781 L354.3089,216.0241 L354.3089,312.7191 L465.2369,248.6741 L465.2369,225.7761 L435.0199,208.3291 L465.2369,190.8831 L465.2379,94.1891 Z" id="Fill-17" fill="#FFFFFF"></path>
            <path d="M224.4129,411.5765 C221.8869,410.9405 219.3189,410.4445 216.8579,409.9915 C207.4969,408.2755 199.2289,407.1835 199.2289,401.5665 C199.2289,398.4465 201.5689,394.5465 210.6179,394.5465 C218.4189,394.5465 224.0349,397.5105 228.4029,401.4105 L239.1689,388.3055 C231.9919,382.2205 221.3829,378.3205 209.8379,378.3205 C194.5479,378.3205 179.5709,384.8735 179.5709,402.0345 C179.5709,417.1005 191.0299,421.7845 202.2499,424.3725 C204.5089,424.8925 206.7579,425.3305 208.9019,425.7495 C217.9499,427.4655 223.2549,428.7135 223.2549,433.3935 C223.2549,437.6065 218.5739,439.3225 212.0219,439.3225 C205.6239,439.3225 197.5229,437.5965 190.8219,430.9705 L174.7339,440.2585 C182.3789,450.3995 197.6689,455.7035 210.6179,455.7035 C227.3109,455.7035 243.0689,446.9665 243.0689,430.7415 C243.0689,418.5015 234.0549,414.0045 224.4129,411.5765" id="Fill-19" fill="#FFFFFF"></path>
            <polygon id="Fill-21" fill="#FFFFFF" points="289.9001 414.3598 324.6911 380.1928 297.2331 380.1928 271.0221 407.1828 271.0221 351.4858 251.0521 351.4858 251.0521 454.1438 271.1421 454.1438 271.1791 424.1888 300.9771 454.1438 328.9041 454.1438"></polygon>
            <mask id="mask-2" fill="white">
                <use xlink:href="#path-1"></use>
            </mask>
            <g id="Clip-24"></g>
            <polygon id="Fill-23" fill="#FFFFFF" mask="url(#mask-2)" points="334.376 454.144 354.346 454.144 354.346 380.193 334.376 380.193"></polygon>
            <path d="M401.5347,439.0104 C389.5217,439.0104 381.2527,430.5854 381.2527,416.8564 C381.2527,402.8144 389.8337,395.0144 401.2227,395.0144 C411.0517,395.0144 421.8167,400.9424 421.8167,417.0124 C421.8167,431.8334 412.6117,439.0104 401.5347,439.0104 L401.5347,439.0104 Z M421.9727,390.1774 C417.2927,382.5334 408.5557,378.3204 397.9467,378.3204 C379.5367,378.3204 361.4387,391.2704 361.4387,416.8564 C361.4387,442.7544 380.0047,455.7044 398.7267,455.7044 C409.3357,455.7044 416.8247,451.4914 422.1287,445.0954 L422.1287,454.1434 L441.9427,454.1434 L441.9427,351.4864 L421.9727,351.4864 L421.9727,390.1774 Z" id="Fill-25" fill="#FFFFFF" mask="url(#mask-2)"></path>
            <path d="M488.6393,439.0104 C476.6263,439.0104 468.3573,430.5854 468.3573,416.8564 C468.3573,402.8144 476.9383,395.0144 488.3273,395.0144 C498.1563,395.0144 508.9213,400.9424 508.9213,417.0124 C508.9213,431.8334 499.7163,439.0104 488.6393,439.0104 L488.6393,439.0104 Z M509.0773,390.1774 C504.3973,382.5334 495.6603,378.3204 485.0513,378.3204 C466.6413,378.3204 448.5433,391.2704 448.5433,416.8564 C448.5433,442.7544 467.1093,455.7044 485.8313,455.7044 C496.4403,455.7044 503.9293,451.4914 509.2333,445.0954 L509.2333,454.1434 L529.0473,454.1434 L529.0473,351.4864 L509.0773,351.4864 L509.0773,390.1774 Z" id="Fill-26" fill="#FFFFFF" mask="url(#mask-2)"></path>
            <path d="M568.3079,438.5668 C567.5609,438.7448 566.7929,438.8538 566.0249,438.8538 C561.3439,438.8538 556.8199,436.3578 556.8199,429.4938 L556.8199,351.4858 L536.8499,351.4858 L536.8499,429.8058 C536.8499,448.2148 549.0189,455.7038 562.1239,455.7038 C567.5469,455.7038 573.1209,454.3168 578.0879,452.0058 C573.9349,448.1638 570.6599,443.6498 568.3079,438.5668" id="Fill-27" fill="#FFFFFF" mask="url(#mask-2)"></path>
            <path d="M593.0145,409.6796 C594.2625,401.2546 600.3475,395.1706 609.8645,395.1706 C618.6015,395.1706 624.9975,400.3186 625.9335,409.6796 L593.0145,409.6796 Z M644.8115,415.4516 C644.8115,390.6456 628.5865,378.3206 610.4885,378.3206 C591.6105,378.3206 572.7325,391.7376 572.7325,417.3246 C572.7325,443.2226 592.0785,455.7036 611.7365,455.7036 C624.6855,455.7036 636.2305,450.3996 644.1875,440.4146 L632.1745,428.4016 C627.1815,434.9536 620.0055,438.2296 611.8925,438.2296 C603.9355,438.2296 594.7315,434.9536 593.0145,424.8126 L644.1875,424.8126 C644.6555,420.9126 644.8115,417.9486 644.8115,415.4516 L644.8115,415.4516 Z" id="Fill-28" fill="#FFFFFF" mask="url(#mask-2)"></path>
        </g>
    </g>
</svg>